# xmcd
#
# Track frame offsets:
#      150
#      14198
#      30564
#      44802
#      57107
#      74897
#      89436
#      102177
#      119696
#      133966
#      143196
#      155701
#
# Disc length: 2238 seconds
#
# Revision: 1
# Processed by: cddbd v1.4PL0 Copyright (c) Steve Scherf et al.
# Submitted via: SoundClick v1.0
#
DISCID=c108bc0c
DTITLE=Kel-Anne Brandt - I'm Into Something Good
DYEAR=1900
DGENRE=
TTITLE0=Let Him Dance
TTITLE1=Rodeo Eyes
TTITLE2=Have You Ever Seen The Rain?
TTITLE3=Lies
TTITLE4=Say You Love Me
TTITLE5=Legend In The Making
TTITLE6=Then He Kissed Me
TTITLE7=I'm Into Something Good
TTITLE8=I Know A Heartache
TTITLE9=Shame On You
TTITLE10=Only With You
TTITLE11=Why Do Fools Fall In Love?
EXTD=
EXTT0=
EXTT1=
EXTT2=
EXTT3=
EXTT4=
EXTT5=
EXTT6=
EXTT7=
EXTT8=
EXTT9=
EXTT10=
EXTT11=
PLAYORDER=
